<?xml version="1.0" encoding="utf-8"?>
<!-- Generator: Adobe Illustrator 16.0.0, SVG Export Plug-In . SVG Version: 6.00 Build 0)  -->
<!DOCTYPE svg PUBLIC "-//W3C//DTD SVG 1.1//EN" "http://www.w3.org/Graphics/SVG/1.1/DTD/svg11.dtd">
<svg version="1.1" xmlns="http://www.w3.org/2000/svg" xmlns:xlink="http://www.w3.org/1999/xlink" x="0px" y="0px" width="50px"
	 height="50px" viewBox="0 0 50 50" enable-background="new 0 0 50 50" xml:space="preserve">
<g id="Layer_2" display="none">
	
		<rect x="5" y="5" display="inline" fill="none" stroke="#000000" stroke-width="0.25" stroke-linecap="round" stroke-linejoin="round" stroke-miterlimit="10" width="40" height="40"/>
</g>
<g id="Layer_1">
	<g>
		<path d="M45.846,3.637c0-1.18-0.957-2.137-2.136-2.137H6.324c-1.18,0-2.136,0.957-2.136,2.137c0,0.789,0.432,1.47,1.068,1.84
			v24.608c0.578-0.528,1.281-1.171,2.136-1.953V5.773h35.249v23.499H15.112c-0.715,0.781-1.368,1.496-1.954,2.137h1.885
			l-3.841,14.403c-0.304,1.14,0.374,2.311,1.514,2.615c1.134,0.301,2.31-0.374,2.614-1.514l3.85-14.437h11.672l3.85,14.437
			c0.255,0.955,1.119,1.586,2.063,1.586c0.183,0,0.368-0.023,0.552-0.072c1.14-0.305,1.818-1.476,1.514-2.615L34.99,31.409h8.72
			c0.59,0,1.068-0.478,1.068-1.068V5.477C45.414,5.106,45.846,4.426,45.846,3.637z"/>
		<path d="M26.619,25.268v-8.011c0-1.18-0.957-2.137-2.136-2.137s-2.136,0.957-2.136,2.137v8.011c0,1.181,0.957,2.137,2.136,2.137
			S26.619,26.448,26.619,25.268z"/>
		<path d="M33.563,25.268V9.778c0-1.18-0.957-2.136-2.137-2.136c-1.18,0-2.136,0.956-2.136,2.136v15.489
			c0,1.181,0.957,2.137,2.136,2.137C32.606,27.404,33.563,26.448,33.563,25.268z"/>
		<path d="M40.505,25.268V14.051c0-1.181-0.957-2.137-2.136-2.137s-2.136,0.956-2.136,2.137v11.217c0,1.181,0.957,2.137,2.136,2.137
			S40.505,26.448,40.505,25.268z"/>
		<path d="M19.167,20.935c-0.203-0.202-0.534-0.203-0.737,0c0,0-14.3,13.073-14.369,13.142c-0.542,0.542-0.542,1.422,0,1.965
			c0.543,0.543,1.423,0.543,1.965,0c0.069-0.068,13.141-14.368,13.141-14.368C19.371,21.469,19.37,21.139,19.167,20.935z"/>
	</g>
</g>
</svg>
