<?xml version="1.0" encoding="iso-8859-1"?>
<!-- Generator: Adobe Illustrator 16.0.0, SVG Export Plug-In . SVG Version: 6.00 Build 0)  -->
<!DOCTYPE svg PUBLIC "-//W3C//DTD SVG 1.1//EN" "http://www.w3.org/Graphics/SVG/1.1/DTD/svg11.dtd">
<svg version="1.1" id="Layer_1" xmlns="http://www.w3.org/2000/svg" xmlns:xlink="http://www.w3.org/1999/xlink" x="0px" y="0px"
	 width="32.166px" height="31.479px" viewBox="0 0 32.166 31.479" style="enable-background:new 0 0 32.166 31.479;"
	 xml:space="preserve">
<path d="M32.166,29.484l-3.183-1.995v1.351h-0.698V17.104H22.68V28.84h-0.752V13.564h-5.604V28.84h-0.737V6.384H9.981V28.84H9.225
	V12.717H3.621V28.84H2.64V3.183h1.35L1.994,0L0,3.183h1.35v26.946h27.634v1.35L32.166,29.484z M23.324,17.75h4.315v3.189h-4.315
	V17.75z M16.969,14.207h4.314v8.154h-4.314V14.207z M10.626,7.029h4.314v3.318h-4.314V7.029z M4.266,13.362H8.58v6.458H4.266V13.362
	z"/>
<g>
</g>
<g>
</g>
<g>
</g>
<g>
</g>
<g>
</g>
<g>
</g>
<g>
</g>
<g>
</g>
<g>
</g>
<g>
</g>
<g>
</g>
<g>
</g>
<g>
</g>
<g>
</g>
<g>
</g>
</svg>
